{"title":"New Girl - Complete Season 2 S02 - 720p - x265","uid":15724367,"size":2034284533,"categoryP":"video","categoryS":"hd___tv_shows","magnet":"?xt=urn:btih:51304cfba1b6b778cd390dced884255b7c762fdb&amp;dn=New+Girl+-+Complete+Season+2+S02+-+720p+-+x265&amp;tr=udp%3A%2F%2Ftracker.leechers-paradise.org%3A6969&amp;tr=udp%3A%2F%2Fzer0day.ch%3A1337&amp;tr=udp%3A%2F%2Fopen.demonii.com%3A1337&amp;tr=udp%3A%2F%2Ftracker.coppersurfer.tk%3A6969&amp;tr=udp%3A%2F%2Fexodus.desync.com%3A6969","seeders":11,"leechers":9,"uploader":null,"files":25,"time":1472695083,"description":"As for the season 1 (https://thepiratebay.org/torrent/15637341) don't expect the full quality of beautiful HD but rather &quot;better than SD for half the size&quot;.\r\n\r\nConverted from https://thepiratebay.org/torrent/13852767/New_Girl_S02_Season_2_Complete_1080p_WEB-DL_[MIXED] and let's be honest, this release was a mess.\r\n\r\nSo, I converted the audio to AAC 2.0 when it wasn't available or took it from the release when it was. Removed those AWEFUL pre and post-roll F0x ads on each episodes, resynced the subtitles to match (so, the subtitles in the wild won't work, probably).\r\n\r\nAnyway, as always, don't hesitate to give me any suggestion.\r\nI will (probably) do the other seasons in the coming weeks.\r\n\r\nGeneral\r\nFormat                                   : Matroska\r\nFormat version                           : Version 4 / Version 2\r\nFile size                                : 104 MiB\r\nDuration                                 : 21mn 43s\r\nOverall bit rate                         : 667 Kbps\r\nEncoded date                             : UTC 2016-08-31 11:48:16\r\nWriting application                      : mkvmerge v8.8.0 ('Wind at my back') 64bit\r\nWriting library                          : libebml v1.3.3 + libmatroska v1.4.4 / Lavf56.40.101\r\n\r\nVideo\r\nID                                       : 2\r\nFormat                                   : HEVC\r\nFormat/Info                              : High Efficiency Video Coding\r\nFormat profile                           :   @Main\r\nCodec ID                                 : V_MPEGH/ISO/HEVC\r\nDuration                                 : 21mn 42s\r\nBit rate                                 : 516 Kbps\r\nWidth                                    : 1 280 pixels\r\nHeight                                   : 720 pixels\r\nDisplay aspect ratio                     : 16:9\r\nOriginal display aspect ratio            : 16:9\r\nFrame rate mode                          : Constant\r\nFrame rate                               : 23.976 (23976/1000) fps\r\nColor space                              : YUV\r\nChroma subsampling                       : 4:2:0\r\nBit depth                                : 8 bits\r\nBits/(Pixel*Frame)                       : 0.023\r\nStream size                              : 80.2 MiB (77%)\r\nWriting library                          : x265 1.9:[Linux][GCC 5.3.1][64 bit] 8bit+10bit+12bit\r\nEncoding settings                        : wpp / ctu=64 / min-cu-size=8 / max-tu-size=32 / tu-intra-depth=1 / tu-inter-depth=1 / me=3 / subme=3 / merange=57 / rect / no-amp / max-merge=3 / temporal-mvp / no-early-skip / rdpenalty=0 / no-tskip / no-tskip-fast / strong-intra-smoothing / no-lossless / no-cu-lossless / no-constrained-intra / no-fast-intra / open-gop / no-temporal-layers / interlace=0 / keyint=250 / min-keyint=23 / scenecut=40 / rc-lookahead=25 / lookahead-slices=4 / bframes=4 / bframe-bias=0 / b-adapt=2 / ref=4 / limit-refs=3 / limit-modes / weightp / no-weightb / aq-mode=1 / qg-size=32 / aq-strength=1.00 / cbqpoffs=0 / crqpoffs=0 / rd=4 / psy-rd=2.00 / rdoq-level=2 / psy-rdoq=1.00 / signhide / deblock / sao / no-sao-non-deblock / b-pyramid / cutree / no-intra-refresh / rc=crf / crf=27.0 / qcomp=0.60 / qpmin=0 / qpmax=51 / qpstep=4 / ipratio=1.40 / pbratio=1.30\r\nLanguage                                 : English\r\nDefault                                  : Yes\r\nForced                                   : No\r\n\r\nAudio\r\nID                                       : 3\r\nFormat                                   : AAC\r\nFormat/Info                              : Advanced Audio Codec\r\nFormat profile                           : LC\r\nCodec ID                                 : A_AAC\r\nDuration                                 : 21mn 43s\r\nBit rate                                 : 149 Kbps\r\nChannel(s)                               : 2 channels\r\nChannel positions                        : Front: L R\r\nSampling rate                            : 48.0 KHz\r\nFrame rate                               : 46.875 fps (1024 spf)\r\nCompression mode                         : Lossy\r\nDelay relative to video                  : -1s 6ms\r\nStream size                              : 23.1 MiB (22%)\r\nLanguage                                 : English\r\nDefault                                  : No\r\nForced                                   : No\r\n\r\nText\r\nID                                       : 1\r\nFormat                                   : UTF-8\r\nCodec ID                                 : S_TEXT/UTF8\r\nCodec ID/Info                            : UTF-8 Plain Text\r\nDuration                                 : 21mn 29s\r\nBit rate                                 : 105 bps\r\nCount of elements                        : 505\r\nStream size                              : 16.7 KiB (0%)\r\nLanguage                                 : English\r\nDefault                                  : No\r\nForced                                   : No","torrent":{"xt":"urn:btih:51304cfba1b6b778cd390dced884255b7c762fdb","amp;dn":"New+Girl+-+Complete+Season+2+S02+-+720p+-+x265","amp;tr":["udp%3A%2F%2Ftracker.leechers-paradise.org%3A6969","udp%3A%2F%2Fzer0day.ch%3A1337","udp%3A%2F%2Fopen.demonii.com%3A1337","udp%3A%2F%2Ftracker.coppersurfer.tk%3A6969","udp%3A%2F%2Fexodus.desync.com%3A6969"],"infoHash":"51304cfba1b6b778cd390dced884255b7c762fdb","infoHashBuffer":{"type":"Buffer","data":[81,48,76,251,161,182,183,120,205,57,13,206,216,132,37,91,124,118,47,219]},"announce":[],"urlList":[]}}